<?xml version="1.0" encoding="UTF-8" standalone="no"?>
<!-- Created with Inkscape (http://www.inkscape.org/) -->

<svg
   xmlns:dc="http://purl.org/dc/elements/1.1/"
   xmlns:cc="http://creativecommons.org/ns#"
   xmlns:rdf="http://www.w3.org/1999/02/22-rdf-syntax-ns#"
   xmlns:svg="http://www.w3.org/2000/svg"
   xmlns="http://www.w3.org/2000/svg"
   xmlns:sodipodi="http://sodipodi.sourceforge.net/DTD/sodipodi-0.dtd"
   xmlns:inkscape="http://www.inkscape.org/namespaces/inkscape"
   version="1.1"
   id="svg2213"
   xml:space="preserve"
   width="800"
   height="800"
   viewBox="0 0 800 800"
   sodipodi:docname="bar-chart-freesvg.org.svg"
   inkscape:version="0.92.4 (5da689c313, 2019-01-14)"><metadata
     id="metadata2219"><rdf:RDF><cc:Work
         rdf:about=""><dc:format>image/svg+xml</dc:format><dc:type
           rdf:resource="http://purl.org/dc/dcmitype/StillImage" /><dc:title></dc:title></cc:Work></rdf:RDF></metadata><defs
     id="defs2217"><clipPath
       clipPathUnits="userSpaceOnUse"
       id="clipPath2229"><path
         d="M 0,600 H 600 V 0 H 0 Z"
         id="path2227"
         inkscape:connector-curvature="0" /></clipPath><linearGradient
       x1="0"
       y1="0"
       x2="1"
       y2="0"
       gradientUnits="userSpaceOnUse"
       gradientTransform="matrix(-1.53e-5,362.70166,362.70166,1.53e-5,302.76758,122.2168)"
       spreadMethod="pad"
       id="linearGradient2249"><stop
         style="stop-opacity:1;stop-color:#ffffff"
         offset="0"
         id="stop2243" /><stop
         style="stop-opacity:1;stop-color:#ffffff"
         offset="0.79908746"
         id="stop2245" /><stop
         style="stop-opacity:1;stop-color:#f46e16"
         offset="1"
         id="stop2247" /></linearGradient></defs><sodipodi:namedview
     pagecolor="#ffffff"
     bordercolor="#666666"
     borderopacity="1"
     objecttolerance="10"
     gridtolerance="10"
     guidetolerance="10"
     inkscape:pageopacity="0"
     inkscape:pageshadow="2"
     inkscape:window-width="1920"
     inkscape:window-height="1018"
     id="namedview2215"
     showgrid="false"
     inkscape:zoom="0.68243869"
     inkscape:cx="683.05085"
     inkscape:cy="316.94915"
     inkscape:window-x="-8"
     inkscape:window-y="-8"
     inkscape:window-maximized="1"
     inkscape:current-layer="g2221" /><g
     id="g2221"
     inkscape:groupmode="layer"
     inkscape:label="chart-4-publicdomainvectors.org [Converted]"
     transform="matrix(1.3333333,0,0,-1.3333333,0,800)"><g
       id="g2223"
       transform="translate(-14.286998,-120.88999)"><g
         id="g2225"
         clip-path="url(#clipPath2229)"><g
           id="g2231"><g
             id="g2233"><g
               id="g2239"><g
                 id="g2241"><path
                   d="m 107.566,475.585 h 9.305 c 3.274,3.218 6.441,6.335 9.503,9.334 h -8.831 c -3.218,-2.999 -6.534,-6.116 -9.977,-9.334 m 391.916,0 c -3.435,3.218 -6.758,6.335 -9.961,9.334 h -8.831 c 3.055,-2.999 6.214,-6.116 9.495,-9.334 z m -384.959,-3.343 h 9.468 c 4.249,4.433 8.315,8.647 12.182,12.677 h -8.823 c -4.08,-4.03 -8.358,-8.244 -12.827,-12.677 m 378.002,0 c -4.467,4.433 -8.739,8.647 -12.811,12.677 h -8.838 c 3.874,-4.03 7.939,-8.244 12.183,-12.677 z M 121.75,468.784 h 9.644 c 5.161,5.698 10.012,11.073 14.6,16.135 h -8.824 c -4.843,-5.062 -9.969,-10.437 -15.42,-16.135 m 363.557,0 c -5.453,5.698 -10.578,11.073 -15.42,16.135 h -8.824 c 4.587,-5.062 9.431,-10.437 14.593,-16.135 z m -362.913,-11.2 h 10.237 c 8.498,10.012 16.185,19.084 23.184,27.335 h -8.845 c -7.424,-8.251 -15.562,-17.323 -24.576,-27.335 m 362.269,0 c -9.007,10.012 -17.152,19.084 -24.576,27.335 h -8.846 c 6.999,-8.251 14.678,-17.323 23.185,-27.335 z m -361.549,-12.6 h 10.875 c 12.041,15.202 22.484,28.389 31.633,39.935 h -8.852 c -9.729,-11.546 -20.844,-24.733 -33.656,-39.935 m 360.827,0 c -12.811,15.202 -23.926,28.389 -33.655,39.935 h -8.852 c 9.15,-11.546 19.592,-24.733 31.633,-39.935 z M 106.053,414.376 h 12.402 c 22.024,29.11 39.354,52.026 53.368,70.543 h -8.831 c -14.954,-18.517 -33.444,-41.433 -56.939,-70.543 m 389.887,0 c -22.901,29.11 -40.909,52.032 -55.481,70.543 h -8.824 c 13.625,-18.511 30.487,-41.433 51.897,-70.543 z m -363.825,16.327 h 11.546 c 15.039,21.465 27.483,39.248 37.962,54.216 h -8.81 c -11.235,-14.968 -24.584,-32.751 -40.698,-54.216 m 338.096,0 c -15.674,21.465 -28.649,39.248 -39.573,54.216 h -8.803 c 10.168,-14.968 22.25,-32.751 36.83,-54.216 z m -312.289,18.651 h 10.627 c 8.605,13.364 16.17,25.128 22.894,35.565 h -8.823 c -7.255,-10.437 -15.421,-22.201 -24.698,-35.565 m 286.878,0 c -9.008,13.364 -16.926,25.128 -23.954,35.565 h -8.838 c 6.504,-10.437 13.829,-22.201 22.158,-35.565 z m -269.831,8.23 h 10.245 c 5.883,10.012 11.207,19.084 16.051,27.335 h -8.846 c -5.268,-8.251 -11.044,-17.323 -17.45,-27.335 m 252.939,0 c -6.179,10.012 -11.786,19.084 -16.877,27.335 h -8.852 c 4.674,-8.251 9.814,-17.323 15.499,-27.335 z m -251.546,-17.16 h 11.079 c 9.114,17.16 16.899,31.825 23.63,44.495 h -8.831 c -7.367,-12.677 -15.894,-27.335 -25.878,-44.495 m 249.807,0 c -9.622,17.16 -17.854,31.825 -24.959,44.495 h -8.824 c 6.469,-12.67 13.944,-27.335 22.704,-44.495 z M 180.831,425.505 h 11.857 c 11.32,23.849 20.546,43.279 28.197,59.414 h -8.845 c -8.485,-16.135 -18.688,-35.565 -31.209,-59.414 m 240.565,0 c -12.042,23.849 -21.84,43.279 -29.993,59.414 h -8.844 c 7.332,-16.135 16.149,-35.565 26.966,-59.414 z M 188.785,414.376 h 12.402 c 12.175,29.11 21.762,52.026 29.504,70.543 h -8.823 c -8.683,-18.517 -19.437,-41.433 -33.083,-70.543 m 224.424,0 c -13.052,29.11 -23.325,52.026 -31.619,70.543 h -8.83 c 7.359,-18.511 16.467,-41.433 28.041,-70.543 z M 191.917,388.59 h 13.71 c 8.258,22.831 15.236,42.113 21.211,58.601 5.168,14.268 9.68,26.741 13.66,37.728 h -8.831 c -4.532,-10.987 -9.672,-23.46 -15.576,-37.728 -6.795,-16.488 -14.756,-35.77 -24.174,-58.601 m 217.623,0 c -8.944,22.831 -16.51,42.113 -22.973,58.601 -5.592,14.268 -10.478,26.741 -14.784,37.728 h -8.831 c 3.747,-10.987 8.003,-23.46 12.882,-37.728 5.629,-16.488 12.204,-35.77 19.995,-58.601 z M 177.231,304.543 h 17.967 c 8.612,28.177 15.944,52.196 22.286,72.925 5.522,18.066 10.372,33.953 14.678,48.037 7.297,23.849 13.229,43.279 18.157,59.414 h -8.824 c -5.755,-16.135 -12.67,-35.565 -21.176,-59.414 -5.012,-14.084 -10.676,-29.971 -17.117,-48.037 -7.382,-20.729 -15.944,-44.748 -25.971,-72.925 m 245.261,0 c -9.453,28.177 -17.513,52.196 -24.485,72.925 -6.045,18.066 -11.383,33.953 -16.106,48.037 -8.01,23.849 -14.523,43.279 -19.939,59.414 h -8.824 c 4.582,-16.135 10.126,-35.565 16.92,-59.414 4.009,-14.084 8.534,-29.971 13.681,-48.037 5.918,-20.729 12.748,-44.748 20.78,-72.925 z m -209.646,52.203 h 15.322 c 8.237,33.032 14.847,59.561 20.27,81.324 4.54,18.185 8.386,33.605 11.681,46.849 h -8.824 c -3.973,-13.251 -8.598,-28.664 -14.056,-46.849 -6.533,-21.763 -14.481,-48.292 -24.393,-81.324 m 175.107,0 c -9.233,33.032 -16.629,59.561 -22.717,81.324 -5.077,18.185 -9.382,33.605 -13.088,46.849 h -8.824 c 3.027,-13.251 6.555,-28.664 10.712,-46.849 4.978,-21.763 11.036,-48.292 18.589,-81.324 z M 210.774,278.248 h 19.26 c 6.618,34.279 12.14,62.885 16.82,87.136 4.023,20.81 7.502,38.867 10.557,54.684 5.098,26.388 9.164,47.528 12.515,64.851 h -8.81 c -4.214,-17.323 -9.368,-38.463 -15.789,-64.851 -3.86,-15.817 -8.258,-33.874 -13.327,-54.684 -5.904,-24.251 -12.875,-52.857 -21.226,-87.136 m 177.617,0 c -7.628,34.279 -14.013,62.885 -19.422,87.136 -4.631,20.81 -8.654,38.867 -12.19,54.684 -5.875,26.388 -10.591,47.528 -14.444,64.851 h -8.811 c 2.992,-17.323 6.625,-38.463 11.172,-64.851 2.729,-15.817 5.833,-33.874 9.425,-54.684 4.179,-24.251 9.1,-52.857 15.004,-87.136 z M 223.289,230.58 h 21.72 c 6.357,46.496 11.454,83.883 15.654,114.613 3.507,25.692 6.484,47.499 9.043,66.228 4.179,30.544 7.432,54.379 10.041,73.498 h -8.831 c -3.571,-19.119 -8.033,-42.954 -13.76,-73.498 -3.507,-18.729 -7.593,-40.536 -12.401,-66.228 C 239,314.463 231.993,277.076 223.289,230.58 m 151.606,0 c -7.743,46.496 -13.972,83.883 -19.091,114.613 -4.285,25.692 -7.911,47.499 -11.031,66.228 -5.097,30.544 -9.063,54.379 -12.245,73.498 h -8.831 c 2.22,-19.119 4.978,-42.954 8.52,-73.498 2.17,-18.729 4.702,-40.536 7.679,-66.228 3.555,-30.73 7.89,-68.117 13.285,-114.613 z m -123.119,33.004 h 20.052 c 3.033,37.876 5.543,69.136 7.643,95.367 1.789,22.329 3.33,41.56 4.666,58.303 2.235,27.73 3.995,49.747 5.424,67.665 h -8.81 c -2.355,-17.918 -5.24,-39.935 -8.859,-67.665 -2.192,-16.743 -4.703,-35.974 -7.637,-58.303 -3.429,-26.231 -7.516,-57.491 -12.479,-95.367 m 95.303,0 c -4.165,37.876 -7.615,69.136 -10.493,95.367 -2.468,22.329 -4.581,41.56 -6.427,58.303 -3.055,27.73 -5.479,49.747 -7.452,67.665 h -8.824 c 1.06,-17.918 2.369,-39.935 4.016,-67.665 1.004,-16.743 2.142,-35.974 3.479,-58.303 1.548,-26.231 3.408,-57.491 5.663,-95.367 z M 263.505,122.217 h 27.215 c 1.018,42.869 1.887,79.402 2.644,110.9 0.651,27.442 1.231,51.559 1.74,72.925 0.862,36.166 1.569,65.607 2.149,90.043 0.912,38.223 1.599,66.731 2.121,88.834 h -8.823 c -1.655,-22.103 -3.776,-50.611 -6.633,-88.834 -1.817,-24.436 -4.016,-53.877 -6.71,-90.043 -1.598,-21.366 -3.386,-45.483 -5.437,-72.925 -2.348,-31.498 -5.077,-68.031 -8.266,-110.9 m 68.932,0 h -27.215 c -0.135,42.869 -0.255,79.402 -0.354,110.9 -0.085,27.442 -0.155,51.559 -0.226,72.925 -0.114,36.166 -0.205,65.607 -0.284,90.043 -0.12,38.223 -0.212,66.731 -0.282,88.834 h 8.831 c 1.188,-22.103 2.722,-50.611 4.781,-88.834 1.321,-24.436 2.898,-53.877 4.849,-90.043 1.146,-21.366 2.446,-45.483 3.931,-72.925 1.69,-31.498 3.663,-68.031 5.969,-110.9"
                   style="fill:url(#linearGradient2249);stroke:none"
                   id="path2251"
                   inkscape:connector-curvature="0" /></g></g></g></g><path
           d="m 312.907,590.538 h -8.839 v -106 h 8.839 z"
           style="fill:#f36817;fill-opacity:1;fill-rule:nonzero;stroke:none"
           id="path2253"
           inkscape:connector-curvature="0" /><path
           d="m 290.529,590.538 h 8.831 v -106 h -8.831 z"
           style="fill:#f36817;fill-opacity:1;fill-rule:nonzero;stroke:none"
           id="path2255"
           inkscape:connector-curvature="0" /><path
           d="m 322.721,572.346 h -8.83 v -87.809 h 8.83 z"
           style="fill:#f36817;fill-opacity:1;fill-rule:nonzero;stroke:none"
           id="path2257"
           inkscape:connector-curvature="0" /><path
           d="m 280.715,572.346 h 8.839 v -87.809 h -8.839 z"
           style="fill:#f36817;fill-opacity:1;fill-rule:nonzero;stroke:none"
           id="path2259"
           inkscape:connector-curvature="0" /><path
           d="m 332.549,577.669 h -8.838 v -93.132 h 8.838 z"
           style="fill:#f36817;fill-opacity:1;fill-rule:nonzero;stroke:none"
           id="path2261"
           inkscape:connector-curvature="0" /><path
           d="m 270.894,577.669 h 8.825 v -93.132 h -8.825 z"
           style="fill:#f36817;fill-opacity:1;fill-rule:nonzero;stroke:none"
           id="path2263"
           inkscape:connector-curvature="0" /><path
           d="m 342.356,569.687 h -8.811 v -85.15 h 8.811 z"
           style="fill:#f36318;fill-opacity:1;fill-rule:nonzero;stroke:none"
           id="path2265"
           inkscape:connector-curvature="0" /><path
           d="m 261.074,569.687 h 8.817 v -85.15 h -8.817 z"
           style="fill:#f36318;fill-opacity:1;fill-rule:nonzero;stroke:none"
           id="path2267"
           inkscape:connector-curvature="0" /><path
           d="m 352.19,551.056 h -8.838 v -66.519 h 8.838 z"
           style="fill:#e23f20;fill-opacity:1;fill-rule:nonzero;stroke:none"
           id="path2269"
           inkscape:connector-curvature="0" /><path
           d="m 251.253,551.056 h 8.831 v -66.519 h -8.831 z"
           style="fill:#e23f20;fill-opacity:1;fill-rule:nonzero;stroke:none"
           id="path2271"
           inkscape:connector-curvature="0" /><path
           d="m 361.998,564.363 h -8.832 v -79.826 h 8.832 z"
           style="fill:#f36817;fill-opacity:1;fill-rule:nonzero;stroke:none"
           id="path2273"
           inkscape:connector-curvature="0" /><path
           d="m 241.432,564.363 h 8.845 v -79.826 h -8.845 z"
           style="fill:#f36817;fill-opacity:1;fill-rule:nonzero;stroke:none"
           id="path2275"
           inkscape:connector-curvature="0" /><path
           d="m 371.832,540.415 h -8.831 v -55.878 h 8.831 z"
           style="fill:#f36817;fill-opacity:1;fill-rule:nonzero;stroke:none"
           id="path2277"
           inkscape:connector-curvature="0" /><path
           d="m 231.597,540.415 h 8.845 v -55.878 h -8.845 z"
           style="fill:#f36817;fill-opacity:1;fill-rule:nonzero;stroke:none"
           id="path2279"
           inkscape:connector-curvature="0" /><path
           d="m 381.646,529.773 h -8.838 v -45.236 h 8.838 z"
           style="fill:#f36817;fill-opacity:1;fill-rule:nonzero;stroke:none"
           id="path2281"
           inkscape:connector-curvature="0" /><path
           d="m 221.79,529.773 h 8.831 v -45.236 h -8.831 z"
           style="fill:#f36817;fill-opacity:1;fill-rule:nonzero;stroke:none"
           id="path2283"
           inkscape:connector-curvature="0" /><path
           d="m 391.467,524.449 h -8.844 v -39.912 h 8.844 z"
           style="fill:#e23f20;fill-opacity:1;fill-rule:nonzero;stroke:none"
           id="path2285"
           inkscape:connector-curvature="0" /><path
           d="m 211.955,524.449 h 8.859 v -39.912 h -8.859 z"
           style="fill:#e23f20;fill-opacity:1;fill-rule:nonzero;stroke:none"
           id="path2287"
           inkscape:connector-curvature="0" /><path
           d="m 401.288,516.467 h -8.838 v -31.93 h 8.838 z"
           style="fill:#f36817;fill-opacity:1;fill-rule:nonzero;stroke:none"
           id="path2289"
           inkscape:connector-curvature="0" /><path
           d="m 202.148,516.467 h 8.831 v -31.93 h -8.831 z"
           style="fill:#f36817;fill-opacity:1;fill-rule:nonzero;stroke:none"
           id="path2291"
           inkscape:connector-curvature="0" /><path
           d="m 411.116,505.819 h -8.853 v -21.282 h 8.853 z"
           style="fill:#f36817;fill-opacity:1;fill-rule:nonzero;stroke:none"
           id="path2293"
           inkscape:connector-curvature="0" /><path
           d="m 192.32,505.819 h 8.852 v -21.282 h -8.852 z"
           style="fill:#f36817;fill-opacity:1;fill-rule:nonzero;stroke:none"
           id="path2295"
           inkscape:connector-curvature="0" /><path
           d="m 420.931,511.143 h -8.839 v -26.606 h 8.839 z"
           style="fill:#f36318;fill-opacity:1;fill-rule:nonzero;stroke:none"
           id="path2297"
           inkscape:connector-curvature="0" /><path
           d="m 182.513,511.143 h 8.832 v -26.606 h -8.832 z"
           style="fill:#f36318;fill-opacity:1;fill-rule:nonzero;stroke:none"
           id="path2299"
           inkscape:connector-curvature="0" /><path
           d="m 430.736,521.791 h -8.81 v -37.254 h 8.81 z"
           style="fill:#e23f20;fill-opacity:1;fill-rule:nonzero;stroke:none"
           id="path2301"
           inkscape:connector-curvature="0" /><path
           d="m 172.692,521.791 h 8.824 v -37.254 h -8.824 z"
           style="fill:#e23f20;fill-opacity:1;fill-rule:nonzero;stroke:none"
           id="path2303"
           inkscape:connector-curvature="0" /><path
           d="m 440.572,529.773 h -8.838 v -45.236 h 8.838 z"
           style="fill:#f36817;fill-opacity:1;fill-rule:nonzero;stroke:none"
           id="path2305"
           inkscape:connector-curvature="0" /><path
           d="m 162.864,529.773 h 8.838 v -45.236 h -8.838 z"
           style="fill:#f36817;fill-opacity:1;fill-rule:nonzero;stroke:none"
           id="path2307"
           inkscape:connector-curvature="0" /><path
           d="m 450.393,513.809 h -8.846 v -29.272 h 8.846 z"
           style="fill:#f36817;fill-opacity:1;fill-rule:nonzero;stroke:none"
           id="path2309"
           inkscape:connector-curvature="0" /><path
           d="m 156.642,513.809 h 8.86 v -29.272 h -8.86 z"
           style="fill:#f36817;fill-opacity:1;fill-rule:nonzero;stroke:none"
           id="path2311"
           inkscape:connector-curvature="0" /><path
           d="m 460.207,505.819 h -8.846 v -21.282 h 8.846 z"
           style="fill:#f36817;fill-opacity:1;fill-rule:nonzero;stroke:none"
           id="path2313"
           inkscape:connector-curvature="0" /><path
           d="m 146.843,505.819 h 8.838 v -21.282 h -8.838 z"
           style="fill:#f36817;fill-opacity:1;fill-rule:nonzero;stroke:none"
           id="path2315"
           inkscape:connector-curvature="0" /><path
           d="m 470.021,497.843 h -8.824 v -13.306 h 8.824 z"
           style="fill:#e23f20;fill-opacity:1;fill-rule:nonzero;stroke:none"
           id="path2317"
           inkscape:connector-curvature="0" /><path
           d="m 137.022,497.843 h 8.824 v -13.306 h -8.824 z"
           style="fill:#e23f20;fill-opacity:1;fill-rule:nonzero;stroke:none"
           id="path2319"
           inkscape:connector-curvature="0" /><path
           d="m 479.854,495.179 h -8.844 v -10.642 h 8.844 z"
           style="fill:#f36817;fill-opacity:1;fill-rule:nonzero;stroke:none"
           id="path2321"
           inkscape:connector-curvature="0" /><path
           d="m 127.187,495.179 h 8.846 v -10.642 h -8.846 z"
           style="fill:#f36817;fill-opacity:1;fill-rule:nonzero;stroke:none"
           id="path2323"
           inkscape:connector-curvature="0" /><path
           d="m 489.662,492.519 h -8.831 v -7.982 h 8.831 z"
           style="fill:#f36817;fill-opacity:1;fill-rule:nonzero;stroke:none"
           id="path2325"
           inkscape:connector-curvature="0" /><path
           d="m 117.38,492.519 h 8.831 v -7.982 h -8.831 z"
           style="fill:#f36817;fill-opacity:1;fill-rule:nonzero;stroke:none"
           id="path2327"
           inkscape:connector-curvature="0" /></g></g></g></svg>