<svg width="2895" height="1961" xmlns="http://www.w3.org/2000/svg" xmlns:xlink="http://www.w3.org/1999/xlink" xml:space="preserve" overflow="hidden"><defs><clipPath id="clip0"><rect x="182" y="319" width="2895" height="1961"/></clipPath></defs><g clip-path="url(#clip0)" transform="translate(-182 -319)"><rect x="186" y="323" width="550" height="248" stroke="#000000" stroke-width="8.02083" stroke-miterlimit="8" fill="#00CC99"/><text font-family="Arial,Arial_MSFontService,sans-serif" font-weight="400" font-size="83" transform="matrix(1 0 0 1 272.708 428)">Boundary <tspan font-size="83" x="32.0833" y="99">Diagram</tspan></text><rect x="516" y="681" width="550" height="247" stroke="#000000" stroke-width="8.02083" stroke-miterlimit="8" fill="#00CC99"/><text font-family="Arial,Arial_MSFontService,sans-serif" font-weight="400" font-size="83" transform="matrix(1 0 0 1 630.208 785)">Interface<tspan font-size="83" x="48.125" y="99">Matrix</tspan></text><rect x="873" y="1011" width="550" height="247" stroke="#000000" stroke-width="8.02083" stroke-miterlimit="8" fill="#00CC99"/><text font-family="Arial,Arial_MSFontService,sans-serif" font-weight="400" font-size="83" transform="matrix(1 0 0 1 951.042 1165)">P<tspan font-size="83" x="55" y="0">-</tspan>Diagram</text><rect x="1258" y="1341" width="550" height="247" stroke="#000000" stroke-width="8.02083" stroke-miterlimit="8" fill="#00CC99"/><text font-family="Arial,Arial_MSFontService,sans-serif" font-weight="400" font-size="83" transform="matrix(1 0 0 1 1388.75 1495)">DFMEA</text><rect x="1973" y="925" width="715" height="330" stroke="#000000" stroke-width="8.02083" stroke-miterlimit="8" fill="#00CC99"/><text font-family="Arial,Arial_MSFontService,sans-serif" font-weight="400" font-size="83" transform="matrix(1 0 0 1 1975.42 1021)">Design Verification <tspan font-size="83" x="87.0834" y="99">Plan &amp; Report </tspan><tspan font-size="83" x="185.625" y="198">(DVP&amp;R)</tspan></text><rect x="1891" y="1671" width="550" height="247" stroke="#000000" stroke-width="8.02083" stroke-miterlimit="8" fill="#00CC99"/><text font-family="Arial,Arial_MSFontService,sans-serif" font-weight="400" font-size="83" transform="matrix(1 0 0 1 2023.54 1825)">PFMEA</text><rect x="2523" y="1946" width="550" height="247" stroke="#000000" stroke-width="8.02083" stroke-miterlimit="8" fill="#00CC99"/><text font-family="Arial,Arial_MSFontService,sans-serif" font-weight="400" font-size="83" transform="matrix(1 0 0 1 2571.25 2100)">Control Plan</text><path d="M736 442.989 795.01 442.989 795.01 657.833 786.99 657.833 786.99 447 791 451.01 736 451.01ZM804.75 653.25 791 680.75 777.25 653.25Z"/><path d="M516 808.76 456.99 808.76 456.99 593.917 465.01 593.917 465.01 804.75 461 800.74 516 800.74ZM447.25 598.5 461 571 474.75 598.5Z"/><path d="M1066 799.99 1152.51 799.99 1152.51 987.333 1144.49 987.333 1144.49 804 1148.5 808.01 1066 808.01ZM1162.25 982.75 1148.5 1010.25 1134.75 982.75Z"/><path d="M873.5 1138.26 786.99 1138.26 786.99 950.917 795.01 950.917 795.01 1134.25 791 1130.24 873.5 1130.24ZM777.25 955.5 791 928 804.75 955.5Z"/><path d="M1423 1129.99 1537.01 1129.99 1537.01 1317.33 1528.99 1317.33 1528.99 1134 1533 1138.01 1423 1138.01ZM1546.75 1312.75 1533 1340.25 1519.25 1312.75Z"/><path d="M1258 1468.26 1143.99 1468.26 1143.99 1280.92 1152.01 1280.92 1152.01 1464.25 1148 1460.24 1258 1460.24ZM1134.25 1285.5 1148 1258 1161.75 1285.5Z"/><path d="M0-4.01042 526.51-4.01042 526.51 186.771 518.49 186.771 518.49 0 522.5 4.01042 0 4.01042ZM536.25 182.188 522.5 209.688 508.75 182.188Z" transform="matrix(1 0 0 -1 1808 1464.69)"/><path d="M0-4.01042 444.01-4.01042 444.01 228.021 435.99 228.021 435.99 0 440 4.01042 0 4.01042ZM453.75 223.438 440 250.938 426.25 223.438Z" transform="matrix(-1 1.22465e-16 1.22465e-16 1 1973 1090)"/><path d="M1808 1459.99 2169.51 1459.99 2169.51 1647.33 2161.49 1647.33 2161.49 1464 2165.5 1468.01 1808 1468.01ZM2179.25 1642.75 2165.5 1670.25 2151.75 1642.75Z"/><path d="M1890.5 1798.26 1528.99 1798.26 1528.99 1610.92 1537.01 1610.92 1537.01 1794.25 1533 1790.24 1890.5 1790.24ZM1519.25 1615.5 1533 1588 1546.75 1615.5Z"/><path d="M2441 1789.99 2802.51 1789.99 2802.51 1922.33 2794.49 1922.33 2794.49 1794 2798.5 1798.01 2441 1798.01ZM2812.25 1917.75 2798.5 1945.25 2784.75 1917.75Z"/><path d="M2523.5 2073.26 2161.99 2073.26 2161.99 1940.92 2170.01 1940.92 2170.01 2069.25 2166 2065.24 2523.5 2065.24ZM2152.25 1945.5 2166 1918 2179.75 1945.5Z"/><rect x="241" y="1313" width="550" height="963" stroke="#000000" stroke-width="8.02083" stroke-miterlimit="8" fill="#00CC99"/><text font-family="Arial,Arial_MSFontService,sans-serif" font-weight="400" font-size="83" transform="matrix(1 0 0 1 423.958 1825)">CPM</text></g></svg>