<svg width="2956" height="1753" xmlns="http://www.w3.org/2000/svg" xmlns:xlink="http://www.w3.org/1999/xlink" xml:space="preserve" overflow="hidden"><defs><clipPath id="clip0"><rect x="185" y="423" width="2956" height="1753"/></clipPath></defs><g clip-path="url(#clip0)" transform="translate(-185 -423)"><text font-family="Arial,Arial_MSFontService,sans-serif" font-weight="400" font-size="73" transform="matrix(1 0 0 1 2102.95 856)">Customer Usage &amp; Duty Cycle<tspan font-size="73" x="-1452.92" y="-339">Piece</tspan>-<tspan font-size="73" x="-1245.52" y="-339">to</tspan><tspan font-size="73" x="-1184.22" y="-339">-</tspan><tspan font-size="73" x="-1159.58" y="-339">Piece Variation</tspan><tspan font-size="73" x="-546.563" y="-339">Neighboring Subsystems</tspan><tspan font-size="73" x="-1833.33" y="0">Environmental</tspan><tspan font-size="73" x="-963.646" y="0">Changes Over Time</tspan><tspan font-size="73" x="-28.073" y="668">Response (Y)</tspan><tspan font-size="73" x="-28.073" y="756">(Ideal Function)</tspan><tspan font-size="73" x="-28.073" y="1111">Error States</tspan><tspan font-size="73" x="-1873.44" y="712">Signal Factor (M)</tspan></text><rect x="1130" y="1420" width="612" height="243" stroke="#000000" stroke-width="10.3125" stroke-miterlimit="8" fill="none"/><text font-family="Arial,Arial_MSFontService,sans-serif" font-weight="400" font-size="46" transform="matrix(1 0 0 1 1162.79 1504)">Transfer Functions<tspan font-size="46" x="0" y="55">Y</tspan><tspan font-size="31" x="30.3645" y="65">1</tspan><tspan font-size="46" x="47.552" y="55">=F(x</tspan><tspan font-size="31" x="140.938" y="65">1</tspan><tspan font-size="46" x="158.125" y="55">, x</tspan><tspan font-size="31" x="206.25" y="65">2</tspan><tspan font-size="46" x="223.438" y="55">,…)</tspan><tspan font-size="46" x="0" y="110">Y</tspan><tspan font-size="31" x="30.3645" y="120">2</tspan><tspan font-size="46" x="47.552" y="110">=F(x</tspan><tspan font-size="31" x="140.938" y="120">1</tspan><tspan font-size="46" x="158.125" y="110">, x</tspan><tspan font-size="31" x="206.25" y="120">2</tspan><tspan font-size="46" x="223.438" y="110">,…)</tspan></text><path d="M826 1535.84 1094.13 1535.84 1094.13 1546.16 826 1546.16ZM1094.12 1541 1073.5 1515.22 1125.06 1541 1073.5 1566.78Z"/><path d="M1747 1535.84 2011.11 1535.84 2011.11 1546.16 1747 1546.16ZM2011.11 1541 1990.49 1515.22 2042.05 1541 1990.49 1566.78Z"/><path d="M1751.15 1537.94 2027.81 1912.38 2019.52 1918.5 1742.85 1544.06ZM2023.67 1915.44 2032.15 1883.53 2042.05 1940.32 1990.68 1914.17Z"/><path d="M2042.5 1657.5 2666.5 1657.5" stroke="#000000" stroke-width="3.4375" stroke-linejoin="round" stroke-miterlimit="10" fill="none" fill-rule="evenodd"/><path d="M2042.5 1708.5 2666.5 1708.5" stroke="#000000" stroke-width="3.4375" stroke-linejoin="round" stroke-miterlimit="10" fill="none" fill-rule="evenodd"/><path d="M2042.5 1759.5 2666.5 1759.5" stroke="#000000" stroke-width="3.4375" stroke-linejoin="round" stroke-miterlimit="10" fill="none" fill-rule="evenodd"/><path d="M2042.5 1810.5 2666.5 1810.5" stroke="#000000" stroke-width="3.4375" stroke-linejoin="round" stroke-miterlimit="10" fill="none" fill-rule="evenodd"/><path d="M2042.5 2012.5 2666.5 2012.5" stroke="#000000" stroke-width="3.4375" stroke-linejoin="round" stroke-miterlimit="10" fill="none" fill-rule="evenodd"/><path d="M2042.5 2063.5 2666.5 2063.5" stroke="#000000" stroke-width="3.4375" stroke-linejoin="round" stroke-miterlimit="10" fill="none" fill-rule="evenodd"/><path d="M2042.5 2114.5 2666.5 2114.5" stroke="#000000" stroke-width="3.4375" stroke-linejoin="round" stroke-miterlimit="10" fill="none" fill-rule="evenodd"/><path d="M2042.5 2165.5 2666.5 2165.5" stroke="#000000" stroke-width="3.4375" stroke-linejoin="round" stroke-miterlimit="10" fill="none" fill-rule="evenodd"/><path d="M197.5 1627.5 822.5 1627.5" stroke="#000000" stroke-width="3.4375" stroke-linejoin="round" stroke-miterlimit="10" fill="none" fill-rule="evenodd"/><path d="M197.5 1678.5 822.5 1678.5" stroke="#000000" stroke-width="3.4375" stroke-linejoin="round" stroke-miterlimit="10" fill="none" fill-rule="evenodd"/><path d="M197.5 1729.5 822.5 1729.5" stroke="#000000" stroke-width="3.4375" stroke-linejoin="round" stroke-miterlimit="10" fill="none" fill-rule="evenodd"/><path d="M197.5 1780.5 822.5 1780.5" stroke="#000000" stroke-width="3.4375" stroke-linejoin="round" stroke-miterlimit="10" fill="none" fill-rule="evenodd"/><text font-family="Arial,Arial_MSFontService,sans-serif" font-weight="400" font-size="73" transform="matrix(1 0 0 1 1202.9 1967)">Control Factors</text><path d="M1170.5 2021.5 1796.5 2021.5" stroke="#000000" stroke-width="3.4375" stroke-linejoin="round" stroke-miterlimit="10" fill="none" fill-rule="evenodd"/><path d="M1170.5 2071.5 1796.5 2071.5" stroke="#000000" stroke-width="3.4375" stroke-linejoin="round" stroke-miterlimit="10" fill="none" fill-rule="evenodd"/><path d="M1170.5 2122.5 1796.5 2122.5" stroke="#000000" stroke-width="3.4375" stroke-linejoin="round" stroke-miterlimit="10" fill="none" fill-rule="evenodd"/><path d="M1170.5 2174.5 1796.5 2174.5" stroke="#000000" stroke-width="3.4375" stroke-linejoin="round" stroke-miterlimit="10" fill="none" fill-rule="evenodd"/><path d="M237.5 916.5 1001.5 916.5" stroke="#000000" stroke-width="3.4375" stroke-linejoin="round" stroke-miterlimit="10" fill="none" fill-rule="evenodd"/><path d="M237.5 966.5 1001.5 966.5" stroke="#000000" stroke-width="3.4375" stroke-linejoin="round" stroke-miterlimit="10" fill="none" fill-rule="evenodd"/><path d="M237.5 1017.5 1001.5 1017.5" stroke="#000000" stroke-width="3.4375" stroke-linejoin="round" stroke-miterlimit="10" fill="none" fill-rule="evenodd"/><path d="M237.5 1068.5 1001.5 1068.5" stroke="#000000" stroke-width="3.4375" stroke-linejoin="round" stroke-miterlimit="10" fill="none" fill-rule="evenodd"/><path d="M1107.5 914.5 1955.5 914.5" stroke="#000000" stroke-width="3.4375" stroke-linejoin="round" stroke-miterlimit="10" fill="none" fill-rule="evenodd"/><path d="M1107.5 965.5 1955.5 965.5" stroke="#000000" stroke-width="3.4375" stroke-linejoin="round" stroke-miterlimit="10" fill="none" fill-rule="evenodd"/><path d="M1107.5 1015.5 1955.5 1015.5" stroke="#000000" stroke-width="3.4375" stroke-linejoin="round" stroke-miterlimit="10" fill="none" fill-rule="evenodd"/><path d="M1107.5 1067.5 1955.5 1067.5" stroke="#000000" stroke-width="3.4375" stroke-linejoin="round" stroke-miterlimit="10" fill="none" fill-rule="evenodd"/><path d="M2042.5 910.5 3094.5 910.5" stroke="#000000" stroke-width="3.4375" stroke-linejoin="round" stroke-miterlimit="10" fill="none" fill-rule="evenodd"/><path d="M2042.5 961.5 3094.5 961.5" stroke="#000000" stroke-width="3.4375" stroke-linejoin="round" stroke-miterlimit="10" fill="none" fill-rule="evenodd"/><path d="M2042.5 1012.5 3094.5 1012.5" stroke="#000000" stroke-width="3.4375" stroke-linejoin="round" stroke-miterlimit="10" fill="none" fill-rule="evenodd"/><path d="M2042.5 1064.5 3094.5 1064.5" stroke="#000000" stroke-width="3.4375" stroke-linejoin="round" stroke-miterlimit="10" fill="none" fill-rule="evenodd"/><path d="M1523.5 553.5 2357.5 553.5" stroke="#000000" stroke-width="3.4375" stroke-linejoin="round" stroke-miterlimit="10" fill="none" fill-rule="evenodd"/><path d="M1523.5 604.5 2358.5 604.501" stroke="#000000" stroke-width="3.4375" stroke-linejoin="round" stroke-miterlimit="10" fill="none" fill-rule="evenodd"/><path d="M1523.5 655.5 2354.5 655.5" stroke="#000000" stroke-width="3.4375" stroke-linejoin="round" stroke-miterlimit="10" fill="none" fill-rule="evenodd"/><path d="M0 0 834 0.000360892" stroke="#000000" stroke-width="3.4375" stroke-linejoin="round" stroke-miterlimit="10" fill="none" fill-rule="evenodd" transform="matrix(1 0 0 -1 1523.5 706.5)"/><path d="M620.5 552.5 1450.5 552.5" stroke="#000000" stroke-width="3.4375" stroke-linejoin="round" stroke-miterlimit="10" fill="none" fill-rule="evenodd"/><path d="M620.5 603.5 1451.5 603.5" stroke="#000000" stroke-width="3.4375" stroke-linejoin="round" stroke-miterlimit="10" fill="none" fill-rule="evenodd"/><path d="M620.5 654.5 1447.5 654.5" stroke="#000000" stroke-width="3.4375" stroke-linejoin="round" stroke-miterlimit="10" fill="none" fill-rule="evenodd"/><path d="M0 0 830 0.000360892" stroke="#000000" stroke-width="3.4375" stroke-linejoin="round" stroke-miterlimit="10" fill="none" fill-rule="evenodd" transform="matrix(1 0 0 -1 620.5 705.5)"/><path d="M1251.16 1212 1251.16 1367.38 1240.84 1367.38 1240.84 1212ZM1276.29 1323.48 1246 1378 1215.71 1323.48C1214.33 1320.99 1215.23 1317.85 1217.71 1316.46 1220.2 1315.08 1223.34 1315.98 1224.73 1318.47L1250.51 1364.87 1241.49 1364.87 1267.27 1318.47C1268.66 1315.98 1271.8 1315.08 1274.29 1316.46 1276.78 1317.85 1277.67 1320.99 1276.29 1323.48Z"/><path d="M1629.16 1212 1629.16 1367.38 1618.84 1367.38 1618.84 1212ZM1654.29 1323.48 1624 1378 1593.71 1323.48C1592.33 1320.99 1593.23 1317.85 1595.71 1316.46 1598.2 1315.08 1601.34 1315.98 1602.73 1318.47L1628.51 1364.87 1619.49 1364.87 1645.27 1318.47C1646.66 1315.98 1649.8 1315.08 1652.29 1316.46 1654.77 1317.85 1655.67 1320.99 1654.29 1323.48Z"/><path d="M1503.16 1212 1503.16 1367.38 1492.84 1367.38 1492.84 1212ZM1528.29 1323.48 1498 1378 1467.71 1323.48C1466.33 1320.99 1467.23 1317.85 1469.71 1316.46 1472.2 1315.08 1475.34 1315.98 1476.73 1318.47L1502.51 1364.87 1493.49 1364.87 1519.27 1318.47C1520.66 1315.98 1523.8 1315.08 1526.29 1316.46 1528.78 1317.85 1529.67 1320.99 1528.29 1323.48Z"/><path d="M1377.16 1212 1377.16 1367.38 1366.84 1367.38 1366.84 1212ZM1402.29 1323.48 1372 1378 1341.71 1323.48C1340.33 1320.99 1341.23 1317.85 1343.71 1316.46 1346.2 1315.08 1349.34 1315.98 1350.73 1318.47L1376.51 1364.87 1367.49 1364.87 1393.27 1318.47C1394.66 1315.98 1397.8 1315.08 1400.29 1316.46 1402.77 1317.85 1403.67 1320.99 1402.29 1323.48Z"/><path d="M1618.84 1867 1618.84 1711.62 1629.16 1711.62 1629.16 1867ZM1593.71 1755.52 1624 1701 1654.29 1755.52C1655.67 1758.01 1654.77 1761.15 1652.29 1762.54 1649.8 1763.92 1646.66 1763.02 1645.27 1760.53L1619.49 1714.13 1628.51 1714.13 1602.73 1760.53C1601.34 1763.02 1598.2 1763.92 1595.71 1762.54 1593.22 1761.15 1592.33 1758.01 1593.71 1755.52Z"/><path d="M1240.84 1867 1240.84 1711.62 1251.16 1711.62 1251.16 1867ZM1215.71 1755.52 1246 1701 1276.29 1755.52C1277.67 1758.01 1276.77 1761.15 1274.29 1762.54 1271.8 1763.92 1268.66 1763.02 1267.27 1760.53L1241.49 1714.13 1250.51 1714.13 1224.73 1760.53C1223.34 1763.02 1220.2 1763.92 1217.71 1762.54 1215.23 1761.15 1214.33 1758.01 1215.71 1755.52Z"/><path d="M1366.84 1867 1366.84 1711.62 1377.16 1711.62 1377.16 1867ZM1341.71 1755.52 1372 1701 1402.29 1755.52C1403.67 1758.01 1402.77 1761.15 1400.29 1762.54 1397.8 1763.92 1394.66 1763.02 1393.27 1760.53L1367.49 1714.13 1376.51 1714.13 1350.73 1760.53C1349.34 1763.02 1346.2 1763.92 1343.71 1762.54 1341.22 1761.15 1340.33 1758.01 1341.71 1755.52Z"/><path d="M1492.84 1867 1492.84 1711.62 1503.16 1711.62 1503.16 1867ZM1467.71 1755.52 1498 1701 1528.29 1755.52C1529.67 1758.01 1528.77 1761.15 1526.29 1762.54 1523.8 1763.92 1520.66 1763.02 1519.27 1760.53L1493.49 1714.13 1502.51 1714.13 1476.73 1760.53C1475.34 1763.02 1472.2 1763.92 1469.71 1762.54 1467.23 1761.15 1466.33 1758.01 1467.71 1755.52Z"/><text font-family="Arial,Arial_MSFontService,sans-serif" font-weight="400" font-size="73" transform="matrix(1 0 0 1 1232.11 1167)">Noise Factors</text></g></svg>